<?xml version="1.0" encoding="UTF-8" standalone="no"?>
<!-- Uploaded to: SVG Repo, www.svgrepo.com, Generator: SVG Repo Mixer Tools -->

<svg
   version="1.1"
   id="designs"
   width="800px"
   height="800px"
   viewBox="0 0 32 32"
   xml:space="preserve"
   sodipodi:docname="frame-on-2.svg"
   inkscape:version="1.2.2 (b0a8486541, 2022-12-01)"
   xmlns:inkscape="http://www.inkscape.org/namespaces/inkscape"
   xmlns:sodipodi="http://sodipodi.sourceforge.net/DTD/sodipodi-0.dtd"
   xmlns="http://www.w3.org/2000/svg"
   xmlns:svg="http://www.w3.org/2000/svg"><defs
   id="defs9" /><sodipodi:namedview
   id="namedview7"
   pagecolor="#ffffff"
   bordercolor="#666666"
   borderopacity="1.0"
   inkscape:showpageshadow="2"
   inkscape:pageopacity="0.0"
   inkscape:pagecheckerboard="0"
   inkscape:deskcolor="#d1d1d1"
   showgrid="false"
   inkscape:zoom="0.548125"
   inkscape:cx="363.05587"
   inkscape:cy="389.50969"
   inkscape:window-width="1114"
   inkscape:window-height="748"
   inkscape:window-x="332"
   inkscape:window-y="13"
   inkscape:window-maximized="0"
   inkscape:current-layer="designs" />
<style
   type="text/css"
   id="style2">
	.sketchy_een{fill:#111918;}
</style>
<rect
   style="opacity:0.99;fill:#ffffff;fill-opacity:1;stroke:#000000;stroke-width:0.00257926;stroke-linecap:round"
   id="rect8089"
   width="26.438572"
   height="26.307596"
   x="2.9027758"
   y="2.7753594" /><g
   aria-label="✔"
   transform="matrix(0.65451367,0,0,0.83226949,-0.2898058,-4.0400426)"
   id="text8399"
   style="font-size:27.8825px;line-height:1.25;letter-spacing:0px;word-spacing:0px;fill:#00bf0f;stroke:#007609;stroke-width:1.47"><path
     d="m 19.8165,23.107772 q 0.530966,0 0.803256,0.871328 0.54458,1.63374 0.776026,1.63374 0.176989,0 0.367592,-0.27229 3.825675,-5.622789 7.079541,-8.005327 1.375065,-1.007473 2.682057,-1.007473 1.729041,0 2.083018,0.108916 0.14976,0.04084 0.14976,0.340363 0,0.245061 -0.313134,0.612652 -8.754124,10.047503 -10.428708,13.069922 -0.571809,1.034702 -2.641213,1.034702 -0.680725,0 -1.429523,-0.353977 -0.313134,-0.163374 -1.08916,-2.083019 -0.980244,-2.423381 -0.980244,-4.247724 0,-0.667111 0.953015,-1.102775 1.306992,-0.599038 1.960488,-0.599038 0,0 0.02723,0 z"
     id="path11582" /></g><path
   class="sketchy_een"
   d="m 26.477252,19.519977 c 0.03728,1.947922 -0.02797,3.895844 0.02331,5.844937 0.01398,0.507186 -0.430019,0.932379 -0.925298,0.932379 -0.490617,0 -0.946274,-0.425193 -0.927628,-0.932379 0.03729,-0.951119 0.03496,-1.901069 0.0303,-2.852188 -0.0047,-0.94175 -0.01165,-1.884671 -0.04895,-2.824078 -0.03962,-0.992116 -0.0909,-1.978377 -0.09556,-2.971665 -0.0047,-1.015543 -0.01865,-2.029915 -0.02331,-3.04663 -0.0047,-2.140019 -0.0571,-4.276526 -0.09673,-6.4165463 C 22.407808,7.0640511 20.3894,7.0851351 18.376819,7.0488239 17.40957,7.0324253 16.443484,6.9972853 15.476234,6.9668307 14.49966,6.9363762 13.524253,6.889523 12.547679,6.8988936 11.594413,6.9059236 10.639982,6.9504316 9.6890461,7.006656 8.9373878,7.049995 8.1868946,7.101534 7.4387322,7.1764988 c 0.074583,2.0720832 0.048946,4.1429942 0.054772,6.2185922 0.00466,2.013516 0.00699,4.027033 0.00699,6.04055 0.00233,0.955805 0.016316,1.908096 0.020977,2.863902 0.0035,0.657116 -0.00699,1.316576 -0.0035,1.973691 1.0534872,0.0012 2.1069745,0 3.1616268,-0.0035 0.339121,-0.0012 0.677076,-0.0035 1.016197,-0.0035 0.600161,0 1.201488,0.0082 1.802814,0.04451 0.983566,0.05857 1.965966,0.107764 2.951863,0.12182 0.918305,0.01171 1.836609,-0.0024 2.75375,-0.0024 0.929959,-0.0024 1.861083,-0.0047 2.791041,-0.04217 0.490618,-0.01874 0.89966,0.427535 0.89966,0.904266 0,0.502501 -0.409042,0.892554 -0.89966,0.904267 -0.609483,0.0164 -1.220132,0.06325 -1.829618,0.05154 -0.539562,-0.0093 -1.075629,-0.02108 -1.615192,-0.02343 -0.964919,-0.0047 -1.928674,-0.01172 -2.895923,-0.02577 -0.953267,-0.01406 -1.903038,-0.08434 -2.858634,-0.11479 -1.977619,-0.05857 -3.9529082,0.100731 -5.9293621,0.107762 -0.2190881,0 -0.4148689,-0.09019 -0.5768542,-0.219039 -0.3810734,-0.125333 -0.6712485,-0.476731 -0.6689178,-0.899582 0.00233,-0.490787 0.023307,-0.983918 0.025639,-1.475875 0,-0.549355 0,-1.09988 0.00466,-1.651576 0.016315,-1.117449 0.020976,-2.233727 0.020976,-3.352348 0.00466,-1.936209 0.013984,-3.875931 0.00699,-5.814482 C 5.6767065,11.78334 5.6697141,10.788881 5.6394136,9.7955932 5.6067831,8.7249973 5.5391922,7.6579156 5.4785933,6.5908338 5.4692704,6.4092775 5.5333653,6.2488053 5.6242637,6.1023891 5.6452401,6.0004834 5.6708781,5.8974063 5.7244847,5.8060425 5.8386902,5.6104304 6.0705972,5.392563 6.3060004,5.357423 c 0.70854,-0.103077 1.4159148,-0.1639862 2.131447,-0.1803848 0.6176418,-0.014056 1.236449,-0.016399 1.8517596,-0.025769 0.807597,-0.014056 1.615192,-0.039825 2.422788,-0.039825 0.382238,0 0.763312,0.00585 1.145551,0.021084 1.954312,0.077308 3.908624,0.1710142 5.864103,0.1850701 0.376411,0.00468 0.752823,0.00234 1.129235,0.00234 0.546553,0 1.089613,-0.00234 1.633836,0.00702 0.476634,0.00937 0.950936,0.030455 1.425238,0.049196 0.413703,0.016399 0.827408,0.00234 1.243441,0.021084 0.547721,0.022255 0.956763,0.4779027 0.929959,1.0143719 0.224915,0.1897555 0.378743,0.4650181 0.381074,0.7789346 0.01865,2.1095657 -0.04195,4.2167892 -0.05127,6.3240122 -0.0022,1.023743 -0.0022,2.046314 0,3.070056 0.0012,0.980405 0.04545,1.956122 0.0641,2.935355 z m 4.483147,9.748981 c 0,0.256521 -0.102556,0.504843 -0.280852,0.684056 -0.181797,0.180385 -0.427688,0.282291 -0.680573,0.282291 -0.04079,0 -0.08624,-0.01874 -0.13052,-0.0246 -0.144504,-0.0059 -0.28901,-0.03162 -0.425357,-0.103073 -0.297167,-0.154615 -0.574522,-0.342028 -0.875187,-0.486102 -0.199276,-0.07496 -0.397388,-0.146416 -0.603657,-0.197954 -0.400884,-0.02928 -0.802935,-0.0093 -1.203819,0.0246 -0.410207,0.07145 -0.808762,0.179214 -1.199158,0.326801 -0.750492,0.349056 -1.482341,0.798847 -2.316739,0.886697 -0.278521,0.03045 -0.560539,0.0024 -0.839061,-0.02577 -0.27619,-0.03045 -0.539563,-0.07496 -0.801769,-0.168672 -0.153827,-0.05388 -0.299498,-0.128847 -0.444002,-0.203812 -0.11071,-0.05856 -0.227246,-0.117133 -0.336791,-0.18507 -0.0571,0.05271 -0.114204,0.103073 -0.174803,0.152273 -0.195781,0.161643 -0.413703,0.345542 -0.63862,0.465018 -0.40671,0.214353 -0.862367,0.336172 -1.322685,0.338515 -0.764477,0.0024 -1.547601,-0.221381 -2.115132,-0.759022 -0.03263,-0.03045 -0.06293,-0.06325 -0.09323,-0.09605 -0.08273,0.06677 -0.167812,0.130018 -0.255214,0.189755 -0.224915,0.156959 -0.492949,0.301032 -0.759815,0.361942 -0.104887,0.02343 -0.20627,0.04217 -0.311152,0.05856 -0.18646,0.03045 -0.430019,0.07965 -0.621139,0.05622 -0.392727,-0.04451 -0.785454,-0.107762 -1.152542,-0.258864 -0.174805,-0.07028 -0.360098,-0.131189 -0.520918,-0.233095 -0.174804,-0.11479 -0.376412,-0.253007 -0.511594,-0.415822 -0.0047,-0.0047 -0.0081,-0.01053 -0.01282,-0.01523 -0.220254,0.132361 -0.44517,0.255351 -0.703879,0.313917 -0.306491,0.07028 -0.626965,0.119476 -0.943944,0.08902 -0.151497,-0.01172 -0.297167,-0.03045 -0.448664,-0.05154 -0.17946,-0.0281 -0.3554302,-0.06089 -0.532565,-0.10775 -0.3810734,-0.09839 -0.7574853,-0.226067 -1.1222437,-0.373655 -0.4008845,-0.159301 -0.814588,-0.34437 -1.2387797,-0.428706 -0.2377339,-0.01874 -0.4766331,-0.01289 -0.714367,0.0082 -0.1759696,0.03279 -0.3449471,0.07731 -0.5127592,0.138217 -0.3099864,0.15813 -0.5908386,0.358427 -0.8681947,0.564581 -0.1946155,0.160473 -0.3880655,0.322116 -0.5803503,0.484931 -0.1981116,0.16633 -0.3973884,0.275263 -0.6619256,0.275263 -0.2295764,0 -0.4474991,-0.09488 -0.6199725,-0.247151 -0.1771351,-0.01053 -0.3519393,-0.04802 -0.508098,-0.139388 -0.527909,-0.310403 -0.7155321,-1.017886 -0.4043805,-1.550841 0.053608,-0.09019 0.1025512,-0.180386 0.1468356,-0.27292 0.092063,-0.242465 0.1701429,-0.488445 0.2249149,-0.742624 0.00699,-0.120646 0.00583,-0.238951 -0.00233,-0.359598 C 2.7959301,27.290581 2.7330005,27.065685 2.6537559,26.843133 2.4696287,26.482363 2.2260681,26.154391 2.0302872,25.795964 1.73312,25.251296 1.4324566,24.686714 1.3007705,24.074108 1.1772423,23.50367 1.1259664,22.943774 1.2471639,22.368652 1.3310701,21.969228 1.4557638,21.590888 1.6655289,21.238318 1.7319546,21.127042 1.804207,21.023964 1.8834516,20.925572 1.762254,20.770957 1.6480484,20.608142 1.5454966,20.440642 1.3485505,20.116183 1.1597618,19.754242 1.1061551,19.375903 1.073525,19.141636 1.0175876,18.892144 1.0408949,18.654364 1.0642021,18.400185 1.0921708,18.144835 1.1644233,17.900027 1.2832902,17.493575 1.4779056,17.13632 1.7412775,16.807176 1.8531521,16.666616 1.9766806,16.543627 2.1095318,16.431179 2.0675788,16.378469 2.0232951,16.326931 1.9778459,16.277735 1.5897804,15.854884 1.1760769,15.441404 0.963981,14.894394 0.69012092,14.184567 0.76936558,13.336524 1.0758557,12.653639 1.2634791,12.240159 1.5466621,11.912186 1.8822863,11.628725 1.7086473,11.436626 1.5396699,11.226959 1.4149761,11.002063 1.2681405,10.743199 1.1574311,10.469108 1.0478871,10.196188 0.92202794,9.890471 0.86609058,9.5355579 0.83928725,9.2075854 0.79267277,8.6078643 0.97213856,7.985888 1.2926131,7.4787021 1.5350085,7.0898205 1.8216874,6.7255367 2.0326179,6.3190852 2.074571,6.1984381 2.1072011,6.0777911 2.132839,5.9512875 2.142162,5.7978432 2.1468233,5.6455702 2.1398313,5.4909547 2.0803977,5.2356047 1.9929956,4.988454 1.8997666,4.7413034 1.5746307,4.0525612 1.1457775,3.4165289 0.79034205,2.7441854 0.53279712,2.2580834 0.66448301,1.6489917 1.150439,1.3608444 1.221526,1.3198474 1.2984398,1.2905644 1.3776845,1.2683094 1.4837319,1.1804594 1.6037647,1.1101798 1.7377814,1.0738686 1.9696885,1.0082746 2.293659,1.0246726 2.4952667,1.1722596 2.8110798,1.4053543 3.1362158,1.627907 3.4625171,1.8469458 c 0.2202534,0.1499303 0.4428375,0.2893186 0.679406,0.4076229 0.081576,0.028112 0.1643161,0.053881 0.2482222,0.076137 0.048946,0.00234 0.096724,0.00117 0.1456702,0 C 4.6779897,2.2943945 4.8178332,2.2463701 4.9553457,2.1936602 5.4016794,1.9722788 5.80606,1.6946736 6.2349133,1.4404949 6.5087733,1.2765087 6.8047753,1.1593756 7.0972811,1.0410713 7.4690316,0.89348367 7.8501049,0.83843115 8.2474934,0.79157794 c 0.1969461,-0.0234266 0.392727,-0.03514 0.5931692,-0.028112 0.3624277,0.0117133 0.7085402,0.13587431 1.0336761,0.29283256 0.2295763,0.110105 0.4579873,0.2260667 0.6712493,0.3666264 0.266867,0.1745281 0.518585,0.3806823 0.785453,0.5610671 0.199277,-0.1792135 0.400885,-0.3549131 0.62813,-0.5083573 0.170143,-0.1147904 0.346113,-0.2213814 0.523248,-0.3268011 0.278522,-0.16632891 0.579185,-0.34085711 0.904321,-0.38536766 0.19345,-0.0257693 0.374081,-0.0480245 0.555878,-0.0480245 0.132851,0 0.266868,0.0117133 0.407876,0.0433392 0.111875,0.0234267 0.222585,0.0491959 0.329798,0.0866785 0.174804,0.0562239 0.34145,0.12416101 0.511593,0.19561216 0.142174,0.060909 0.285515,0.1194757 0.411374,0.2131821 0.217922,0.1581295 0.427687,0.3244584 0.624634,0.5095286 0.04895,0.044511 0.09672,0.089021 0.144504,0.134703 0.184128,-0.134703 0.361262,-0.2787766 0.55005,-0.4052803 0.504603,-0.3361717 1.082622,-0.4392488 1.6688,-0.51655658 0.08857,-0.0117133 0.184127,-0.028112 0.269198,-0.028112 0.16315,0.002343 0.374081,0.007028 0.527909,0.0538812 0.200443,0.060909 0.397388,0.1382169 0.583847,0.2354373 0.156158,0.081993 0.313482,0.1663289 0.453325,0.27292 0.150332,0.1147903 0.297168,0.2284093 0.430019,0.358427 0.06177,-0.038654 0.123528,-0.076137 0.186457,-0.113619 0.170144,-0.098392 0.360097,-0.1803849 0.541895,-0.2494934 0.144504,-0.056224 0.292505,-0.1147903 0.446333,-0.1429022 0.283183,-0.053881 0.581515,-0.1054195 0.86936,-0.086678 0.287844,0.016398 0.588507,0.037483 0.862367,0.1311889 0.329799,0.110105 0.626966,0.258864 0.904322,0.4673608 0.09788,0.073794 0.19345,0.1499303 0.290175,0.2272382 0.216757,0.1557869 0.444002,0.2846332 0.684068,0.3982522 0.151496,0.056224 0.302993,0.1065914 0.457986,0.1475876 0.17597,0.010537 0.351939,0.00117 0.526743,-0.015228 0.256381,-0.05271 0.494114,-0.1370455 0.735344,-0.234266 0.353105,-0.1475875 0.705045,-0.2951751 1.058149,-0.4427629 0.319309,-0.1405596 0.626964,-0.2940038 0.926462,-0.479074 0.430019,-0.2635493 1.013866,-0.096049 1.264419,0.3338291 0.09207,0.1593009 0.115371,0.3478852 0.102555,0.535298 0.11304,0.2893186 0.117702,0.6196337 -0.05477,0.893725 -0.328632,0.5200705 -0.651437,1.0436551 -0.917141,1.5988656 -0.06642,0.1838988 -0.11537,0.3701404 -0.150331,0.5622385 -0.0069,0.1089337 -0.0094,0.2166962 -0.0059,0.3256298 0.01981,0.085507 0.04429,0.1686715 0.07459,0.2530072 0.386899,0.8304732 0.962588,1.5941804 1.150211,2.5066467 0.111875,0.5411547 0.15849,1.1092498 0.0022,1.6515753 -0.100213,0.354913 -0.264537,0.6864 -0.476633,0.988603 -0.09905,0.139389 -0.201608,0.275263 -0.307656,0.407623 0.152662,0.190927 0.305325,0.384197 0.421862,0.602064 0.165481,0.315088 0.318143,0.646574 0.37408,1.005001 0.07459,0.476731 0.04429,0.960491 -0.08158,1.427852 -0.125859,0.469704 -0.299499,0.927694 -0.574523,1.331802 -0.01048,0.01523 -0.02098,0.02928 -0.0303,0.04451 0.122363,0.13236 0.230742,0.277605 0.326301,0.436906 0.2692,0.453305 0.364759,0.958148 0.427688,1.471191 0.04195,0.354913 0.04429,0.737937 -0.07925,1.076453 -0.151497,0.411136 -0.353105,0.770735 -0.647943,1.095193 -0.0606,0.0656 -0.123527,0.128846 -0.185291,0.19327 0.142174,0.19444 0.262206,0.388881 0.362427,0.614948 0.116536,0.26355 0.220254,0.52827 0.297168,0.805875 0.135182,0.49313 0.102556,1.0132 -0.01165,1.506331 -0.215591,0.935893 -0.664256,1.795649 -0.842556,2.736227 -0.0059,0.08668 -0.0059,0.171014 -0.0022,0.257692 0.06526,0.332659 0.164316,0.655945 0.26104,0.979233 0.08741,0.288146 0.179467,0.578637 0.285514,0.859757 0.124694,0.257692 0.270364,0.497814 0.444003,0.728567 -0.0069,-0.0093 -0.01515,-0.01874 -0.02213,-0.02811 0.125908,0.17687 0.21098,0.352569 0.21098,0.590349 z M 16.079891,2.0835552 c 0.0081,0 0.01515,-0.00117 0.02215,-0.00234 0,0 0.0012,0 0.0012,0 -0.0081,0 -0.01515,0.00117 -0.02331,0.00234 z M 28.116915,27.565844 c -0.139843,-0.429878 -0.259875,-0.870298 -0.292506,-1.315404 -0.05827,-0.761364 0.224916,-1.503988 0.483626,-2.207958 0.180631,-0.489616 0.340285,-0.975718 0.434679,-1.48876 0.0069,-0.101902 0.0081,-0.200298 0.0035,-0.301032 -0.0338,-0.130018 -0.07459,-0.25535 -0.120034,-0.381854 -0.07109,-0.152273 -0.149166,-0.297518 -0.238899,-0.439249 -0.100225,-0.106595 -0.2086,-0.199126 -0.314647,-0.304545 -0.229577,-0.231924 -0.371751,-0.509529 -0.385736,-0.841016 -0.01632,-0.333829 0.132851,-0.611434 0.339121,-0.859756 0.238899,-0.284634 0.531406,-0.518899 0.776132,-0.800018 0.01981,-0.0328 0.03961,-0.0656 0.0571,-0.09956 0.01632,-0.05037 0.0303,-0.101902 0.04312,-0.154615 0.0012,-0.0492 0.0012,-0.09722 -0.0012,-0.146417 -0.04195,-0.216696 -0.09556,-0.427535 -0.166647,-0.634861 -0.02797,-0.05388 -0.05827,-0.105425 -0.0909,-0.155787 -0.02098,-0.02226 -0.04196,-0.04334 -0.0641,-0.06443 -0.138678,-0.08082 -0.285513,-0.138216 -0.424191,-0.222552 -0.259877,-0.160472 -0.43468,-0.401766 -0.520916,-0.693427 -0.116536,-0.390054 0.0303,-0.768393 0.280851,-1.061225 0.09556,-0.112449 0.210931,-0.209669 0.313483,-0.319773 0.08273,-0.09136 0.163151,-0.182729 0.243561,-0.277606 0.08273,-0.121819 0.156158,-0.248322 0.222583,-0.381854 0.06526,-0.181556 0.120032,-0.366626 0.156159,-0.557553 0.0069,-0.112447 0.0094,-0.224896 0.0047,-0.338514 -0.01748,-0.07965 -0.03961,-0.156959 -0.06526,-0.233095 -0.0641,-0.130018 -0.135182,-0.256521 -0.215592,-0.378339 -0.07225,-0.08083 -0.149166,-0.156959 -0.230742,-0.229582 -0.188789,-0.134703 -0.37175,-0.27292 -0.501105,-0.473217 -0.278522,-0.429878 -0.188788,-0.983917 0.149166,-1.350544 0.116536,-0.126503 0.262206,-0.224895 0.388066,-0.343199 0.08857,-0.08082 0.167812,-0.165158 0.245891,-0.253008 0.11304,-0.156958 0.215592,-0.3197728 0.305325,-0.4919584 0.02213,-0.07028 0.03962,-0.1393882 0.05477,-0.2096681 0.0059,-0.1077624 0.0069,-0.2120107 0.0035,-0.3186017 -0.03855,-0.18741 -0.08983,-0.3689661 -0.152756,-0.5528649 C 28.676288,8.3431437 28.489831,8.0128286 28.297546,7.6860274 27.886173,6.9926 27.484124,6.2429487 27.561037,5.4042763 c 0.03962,-0.4158223 0.102556,-0.8175885 0.262207,-1.2052988 0.01048,-0.025769 0.02331,-0.050368 0.0338,-0.074965 -0.17364,0.071452 -0.348443,0.1393882 -0.52791,0.1885841 -0.229575,0.063252 -0.464978,0.093706 -0.701547,0.1218183 -0.236569,0.030455 -0.46498,0.04451 -0.70388,0.021084 C 25.437748,4.4039603 24.907508,4.2411454 24.478656,4.0068794 24.172165,3.8405505 23.89714,3.6343964 23.626776,3.4165289 23.540539,3.3556198 23.451972,3.3005673 23.358743,3.2490287 23.269003,3.2174027 23.179277,3.1892907 23.086048,3.1682067 22.93222,3.1576697 22.780722,3.1564937 22.62573,3.1693767 22.522009,3.1916327 22.421792,3.2197447 22.32157,3.2548837 22.164246,3.3310217 22.01508,3.4177 21.86941,3.5184345 21.79949,3.5758305 21.730732,3.6343961 21.660809,3.6929626 21.465029,3.8546062 21.286728,3.9963371 21.039671,4.066617 20.826411,4.127526 20.614315,4.139239 20.398723,4.087701 19.952389,3.9799387 19.729805,3.6261971 19.48741,3.2818259 19.432638,3.2209167 19.376701,3.1623502 19.317266,3.1072977 19.193739,3.0253047 19.066714,2.9526821 18.932697,2.888259 c -0.0094,-0.00351 -0.01865,-0.00585 -0.02797,-0.0082 -0.0268,0 -0.0536,0.00117 -0.08041,0.00234 C 18.602898,2.921053 18.38381,2.969077 18.169383,3.0370146 18.005067,3.1225216 17.85357,3.2220848 17.704404,3.3310185 17.517948,3.4786121 17.332655,3.6273711 17.139205,3.769102 16.676557,4.1076164 16.070567,4.1614976 15.582282,3.8323537 15.336391,3.6660222 15.119634,3.4774381 14.913364,3.2689413 14.792166,3.147123 14.672135,3.0288186 14.542778,2.9163709 c -0.04079,-0.025769 -0.08273,-0.050368 -0.124693,-0.072622 -0.159654,-0.060909 -0.32164,-0.110105 -0.488287,-0.1499302 -0.03728,-0.00117 -0.07575,0 -0.11304,0.00117 -0.05594,0.012884 -0.109544,0.029283 -0.164316,0.046853 -0.250552,0.1347034 -0.490616,0.285805 -0.72602,0.4486199 -0.12819,0.1054197 -0.251719,0.2178674 -0.36942,0.3361718 -0.07692,0.077308 -0.153827,0.1546156 -0.234238,0.2260667 C 12.095518,3.9588542 11.759895,4.1450957 11.44175,4.1216691 11.151576,4.1005851 10.895196,4.0303051 10.646973,3.8768611 10.551414,3.8159525 10.458185,3.7527007 10.370783,3.6882775 10.20064,3.5617738 10.03749,3.4247282 9.872008,3.292368 9.5818329,3.0768432 9.2858309,2.884745 8.9618604,2.7301294 8.8966001,2.7067028 8.8313398,2.6891329 8.7660795,2.6739055 c -0.1841272,0 -0.363593,0.017571 -0.5442241,0.039825 C 7.9934445,2.7500421 7.782514,2.8144652 7.5715834,2.8929443 7.1846833,3.0791859 6.8397362,3.3193085 6.4738125,3.5453752 5.9342499,3.8792043 5.3305924,4.1896069 4.6931394,4.2598866 4.3633419,4.2961979 4.0405367,4.2411454 3.7282196,4.1427536 3.8074643,4.3453938 3.8867089,4.5468625 3.948473,4.757702 4.1990259,5.619801 4.1162852,6.651743 3.6536365,7.4318489 3.404249,7.8558704 3.091932,8.2400667 2.8565289,8.6722875 c -0.029134,0.085508 -0.051276,0.1710143 -0.071087,0.2612066 -0.00233,0.060909 -0.00233,0.120647 0,0.1815562 0.037292,0.1967835 0.086238,0.3877103 0.1561585,0.5774658 0.06293,0.1323603 0.1328514,0.2600354 0.2144266,0.3830249 0.1177016,0.135874 0.2458914,0.261207 0.3810735,0.383025 0.1235283,0.112448 0.2598756,0.216696 0.3624275,0.347885 0.086238,0.107763 0.1771351,0.213183 0.24123,0.336171 0.069921,0.135876 0.1654814,0.383026 0.1445049,0.54467 -0.011654,0.103072 -0.025639,0.203811 -0.039623,0.305717 -0.034961,0.09371 -0.074583,0.185069 -0.1188669,0.27292 -0.044283,0.09371 -0.1468357,0.203811 -0.231907,0.27292 -0.2423954,0.196783 -0.5209169,0.32563 -0.7807925,0.493129 -0.083906,0.07262 -0.1608201,0.148759 -0.2365686,0.231924 -0.019811,0.03162 -0.038457,0.06208 -0.055937,0.09488 -0.031465,0.08902 -0.059433,0.178043 -0.081576,0.270577 -0.00583,0.110106 -0.00466,0.217869 0.0035,0.327973 0.013984,0.07262 0.031465,0.144074 0.052441,0.215525 0.033796,0.06208 0.072253,0.121819 0.1118747,0.181556 0.1748044,0.204983 0.3670891,0.39591 0.5360666,0.604406 0.1013858,0.126505 0.1992769,0.251836 0.3076555,0.366628 0.066426,0.02109 0.1328513,0.04919 0.1992769,0.08668 0.06293,0.03749 0.1281899,0.07262 0.1911193,0.112448 0.1841273,0.112447 0.3414512,0.268234 0.4486645,0.455647 0.1957809,0.338514 0.1724735,0.719197 0.00699,1.062397 -0.135182,0.275262 -0.4137035,0.43222 -0.6619255,0.586836 -0.1095442,0.06677 -0.2179228,0.135874 -0.3228054,0.209668 -0.078079,0.07028 -0.151497,0.141731 -0.2214188,0.219039 -0.038457,0.06325 -0.074583,0.126503 -0.1072131,0.193269 -0.026803,0.08434 -0.048946,0.168671 -0.066426,0.254179 -0.0035,0.08551 -0.00233,0.171014 0.0035,0.256521 0.01515,0.07145 0.03263,0.141732 0.053608,0.210839 0.092063,0.172186 0.1934501,0.338515 0.3053247,0.498987 0.1433396,0.168671 0.2960021,0.318602 0.4638142,0.460333 0.09556,0.06911 0.1911194,0.137045 0.2808522,0.214353 0.3950577,0.338514 0.4649794,0.960491 0.2097652,1.402082 -0.1899541,0.326801 -0.540728,0.47439 -0.8460528,0.66883 -0.018645,0.01874 -0.037292,0.03632 -0.055937,0.05622 -0.03263,0.05388 -0.064094,0.107762 -0.093229,0.162815 -0.038457,0.125332 -0.068756,0.251836 -0.093229,0.380682 -0.00583,0.106595 -0.00466,0.212011 0.00117,0.318602 0.041952,0.219039 0.096724,0.435735 0.1724737,0.644231 0.1759695,0.371312 0.3775771,0.735595 0.5931692,1.084652 0.1211976,0.194441 0.2668679,0.37834 0.3764118,0.579808 0.1445049,0.261207 0.2691987,0.537641 0.3647584,0.822274 0.1794658,0.53764 0.2726946,1.115107 0.2249148,1.682031 0.5617045,-0.264721 1.1851732,-0.427536 1.8109725,-0.427536 0.1596547,0 0.3181439,0.01053 0.4754677,0.03045 0.2855138,0.03983 0.5558777,0.08434 0.827407,0.175699 0.118867,0.03983 0.2365685,0.07965 0.3554355,0.121818 0.2295763,0.08902 0.4579871,0.182728 0.6922251,0.263549 0.4206956,0.147589 0.8390602,0.275263 1.2760722,0.35257 0.13052,0.01053 0.259874,0.01523 0.390396,0.01053 0.0641,-0.01406 0.127025,-0.03045 0.191119,-0.0492 0.231907,-0.120647 0.444003,-0.270577 0.673579,-0.39591 0.151497,-0.082 0.30416,-0.14993 0.467311,-0.209668 0.238899,-0.08668 0.579184,-0.01406 0.797107,0.11479 0.249388,0.146417 0.393892,0.387711 0.545389,0.621977 0.03962,0.041 0.07925,0.07965 0.121197,0.117133 0.05011,0.02928 0.09905,0.05622 0.150332,0.082 0.188788,0.07028 0.382239,0.126504 0.580351,0.171015 0.09556,0.0047 0.188788,0.0035 0.284349,-0.0035 0.08974,-0.01757 0.175968,-0.03749 0.263371,-0.0656 0.07692,-0.04217 0.151497,-0.08668 0.224915,-0.134703 0.111874,-0.104244 0.209765,-0.22021 0.312317,-0.337343 0.369419,-0.42285 0.953266,-0.556382 1.449709,-0.284633 0.362428,0.195612 0.597832,0.550525 0.896164,0.829301 0.05243,0.03279 0.104887,0.06443 0.159655,0.09371 0.13052,0.04685 0.263372,0.082 0.399719,0.110106 0.102555,0.0059 0.201608,0.0059 0.304159,0 0.0839,-0.01874 0.164318,-0.03983 0.245892,-0.06677 0.121197,-0.06794 0.237734,-0.144074 0.351939,-0.222552 0.188789,-0.160473 0.355436,-0.337344 0.529075,-0.517728 0.290174,-0.301032 0.699217,-0.467362 1.11292,-0.352571 0.242395,0.0656 0.423028,0.228409 0.605989,0.388881 0.157323,0.105414 0.321639,0.197955 0.491782,0.279948 0.144505,0.04568 0.286679,0.07848 0.435846,0.105414 0.168977,0.01757 0.33912,0.02928 0.508098,0.02226 0.244726,-0.05856 0.477798,-0.152273 0.71087,-0.248321 0.453326,-0.202641 0.885676,-0.446278 1.356481,-0.607921 0.497609,-0.171014 1.019692,-0.298689 1.547601,-0.340857 0.255215,-0.02108 0.511595,-0.03045 0.76914,-0.03279 0.201607,-0.0024 0.414868,0.0035 0.623468,0.02343 z"
   id="path4"
   style="stroke-width:1.16834" />
</svg>
