<?xml version="1.0" encoding="UTF-8" standalone="no"?>
<!-- Created with Inkscape (http://www.inkscape.org/) -->

<svg
   width="48.000000px"
   height="48.000000px"
   id="svg53383"
   sodipodi:version="0.32"
   inkscape:version="1.2.2 (b0a8486541, 2022-12-01)"
   sodipodi:docname="options-3.svg"
   inkscape:output_extension="org.inkscape.output.svg.inkscape"
   version="1.1"
   xmlns:inkscape="http://www.inkscape.org/namespaces/inkscape"
   xmlns:sodipodi="http://sodipodi.sourceforge.net/DTD/sodipodi-0.dtd"
   xmlns:xlink="http://www.w3.org/1999/xlink"
   xmlns="http://www.w3.org/2000/svg"
   xmlns:svg="http://www.w3.org/2000/svg"
   xmlns:rdf="http://www.w3.org/1999/02/22-rdf-syntax-ns#"
   xmlns:cc="http://creativecommons.org/ns#"
   xmlns:dc="http://purl.org/dc/elements/1.1/">
  <defs
     id="defs3">
    <inkscape:perspective
       sodipodi:type="inkscape:persp3d"
       inkscape:vp_x="0 : 24 : 1"
       inkscape:vp_y="0 : 1000 : 0"
       inkscape:vp_z="48 : 24 : 1"
       inkscape:persp3d-origin="24 : 16 : 1"
       id="perspective2483" />
    <linearGradient
       id="linearGradient3264">
      <stop
         style="stop-color: rgb(201, 201, 201); stop-opacity: 1;"
         offset="0"
         id="stop3266" />
      <stop
         id="stop3276"
         offset="0.25"
         style="stop-color: rgb(248, 248, 248); stop-opacity: 1;" />
      <stop
         id="stop3272"
         offset="0.5"
         style="stop-color: rgb(226, 226, 226); stop-opacity: 1;" />
      <stop
         style="stop-color: rgb(176, 176, 176); stop-opacity: 1;"
         offset="0.75"
         id="stop3274" />
      <stop
         style="stop-color: rgb(201, 201, 201); stop-opacity: 1;"
         offset="1"
         id="stop3268" />
    </linearGradient>
    <linearGradient
       inkscape:collect="always"
       xlink:href="#linearGradient3264"
       id="linearGradient3281"
       gradientUnits="userSpaceOnUse"
       x1="14.462892"
       y1="12.284524"
       x2="34.534348"
       y2="39.684914"
       gradientTransform="matrix(1.24194, 0, 0, 1.24194, -5.02751, -7.20899)" />
    <linearGradient
       id="linearGradient2300">
      <stop
         id="stop2302"
         offset="0.0000000"
         style="stop-color: rgb(0, 0, 0); stop-opacity: 0.326733;" />
      <stop
         id="stop2304"
         offset="1"
         style="stop-color: rgb(0, 0, 0); stop-opacity: 0;" />
    </linearGradient>
    <linearGradient
       id="aigrd1"
       gradientUnits="userSpaceOnUse"
       x1="99.7773"
       y1="15.4238"
       x2="153.0005"
       y2="248.6311">
      <stop
         offset="0"
         style="stop-color:#a68235;stop-opacity:1;"
         id="stop53300" />
      <stop
         offset="1"
         style="stop-color:#dfca9b;stop-opacity:1;"
         id="stop53302" />
    </linearGradient>
    <linearGradient
       inkscape:collect="always"
       xlink:href="#aigrd1"
       id="linearGradient53551"
       gradientUnits="userSpaceOnUse"
       x1="99.7773"
       y1="15.4238"
       x2="153.0005"
       y2="248.6311"
       gradientTransform="matrix(0.200685, 0, 0, 0.200685, -0.585758, -1.05079)" />
    <linearGradient
       inkscape:collect="always"
       xlink:href="#linearGradient3264"
       id="linearGradient3760"
       gradientUnits="userSpaceOnUse"
       gradientTransform="matrix(1.24194, 0, 0, 1.24194, -5.02751, -7.20899)"
       x1="14.462892"
       y1="12.284524"
       x2="34.534348"
       y2="39.684914" />
  </defs>
  <sodipodi:namedview
     inkscape:showpageshadow="false"
     id="base"
     pagecolor="#ffffff"
     bordercolor="#666666"
     borderopacity="0.11764706"
     inkscape:pageopacity="0.0"
     inkscape:pageshadow="2"
     inkscape:zoom="7.9999999"
     inkscape:cx="24.875"
     inkscape:cy="21.8125"
     inkscape:current-layer="layer1"
     showgrid="false"
     inkscape:grid-bbox="true"
     inkscape:document-units="px"
     inkscape:window-width="872"
     inkscape:window-height="722"
     inkscape:window-x="313"
     inkscape:window-y="15"
     inkscape:pagecheckerboard="0"
     inkscape:deskcolor="#d1d1d1"
     inkscape:window-maximized="0" />
  <metadata
     id="metadata4">
    <rdf:RDF>
      <cc:Work
         rdf:about="">
        <dc:format>image/svg+xml</dc:format>
        <dc:type
           rdf:resource="http://purl.org/dc/dcmitype/StillImage" />
        <dc:creator>
          <cc:Agent>
            <dc:title>Jakub Steiner</dc:title>
          </cc:Agent>
        </dc:creator>
        <dc:source>http://jimmac.musichall.cz/</dc:source>
        <dc:subject>
          <rdf:Bag>
            <rdf:li>system</rdf:li>
            <rdf:li>applications</rdf:li>
            <rdf:li>group</rdf:li>
            <rdf:li>category</rdf:li>
            <rdf:li>admin</rdf:li>
            <rdf:li>root</rdf:li>
          </rdf:Bag>
        </dc:subject>
        <cc:license
           rdf:resource="http://creativecommons.org/licenses/by/2.0/" />
      </cc:Work>
      <cc:License
         rdf:about="http://creativecommons.org/licenses/by/2.0/">
        <cc:permits
           rdf:resource="http://web.resource.org/cc/Reproduction" />
        <cc:permits
           rdf:resource="http://web.resource.org/cc/Distribution" />
        <cc:requires
           rdf:resource="http://web.resource.org/cc/Notice" />
        <cc:requires
           rdf:resource="http://web.resource.org/cc/Attribution" />
        <cc:permits
           rdf:resource="http://web.resource.org/cc/DerivativeWorks" />
        <cc:requires
           rdf:resource="http://web.resource.org/cc/ShareAlike" />
      </cc:License>
    </rdf:RDF>
  </metadata>
  <g
     id="layer1"
     inkscape:label="Layer 1"
     inkscape:groupmode="layer"
     transform="matrix(0.87864971,0,0,0.89800022,2.4878915,3.3753186)">
    <path
       inkscape:r_cy="true"
       inkscape:r_cx="true"
       style="color:#000000;display:inline;overflow:visible;visibility:visible;opacity:1;fill:#ffffff;fill-opacity:1;fill-rule:nonzero;stroke:#000000;stroke-width:1;stroke-linecap:round;stroke-linejoin:round;stroke-miterlimit:4;stroke-dasharray:none;stroke-dashoffset:0pt;stroke-opacity:1;marker:none"
       d="M 22.699525,0.94746963 C 22.22635,0.97984519 21.766437,1.0531317 21.301673,1.1063165 h -0.03177 L 20.157975,7.1742671 C 18.345621,7.5870046 16.640562,8.2874574 15.106644,9.2392765 L 10.118853,5.6493371 C 8.770521,6.6961412 7.543552,7.9170049 6.465374,9.2392765 l 3.462862,5.0513305 c -1.051422,1.606783 -1.842083,3.441487 -2.287395,5.369025 -7.6e-5,0.0091 -6.2e-5,0.03018 0,0.03177 l -6.036181,0.95308 c -0.110357,0.901369 -0.158847,1.832904 -0.158847,2.763936 0,0.761753 0.021033,1.513329 0.095308,2.255625 l 6.036182,1.080159 c 0.429297,2.096161 1.244809,4.053785 2.382703,5.782026 l -3.58994,4.924254 c 1.028135,1.276384 2.215105,2.43848 3.494632,3.462861 l 5.0831,-3.494631 c 1.776475,1.133244 3.759545,1.927892 5.909103,2.319165 l 0.953082,6.004411 c 0.677254,0.06165 1.371775,0.06354 2.065009,0.06354 0.978685,-10e-7 1.91352,-0.03709 2.859244,-0.158847 l 1.143697,-6.131489 c 2.040927,-0.507904 3.958179,-1.388998 5.62318,-2.573319 l 4.892483,3.55817 c 1.26877,-1.079445 2.428987,-2.320188 3.431093,-3.653479 l -3.55817,-5.146638 c 0.963606,-1.664197 1.631298,-3.500366 1.969701,-5.464333 l 6.004412,-0.953081 c 0.05266,-0.62659 0.06354,-1.234265 0.06354,-1.874393 0,-1.1124 -0.129295,-2.203101 -0.285924,-3.272246 l -6.09972,-1.111928 c -0.478008,-1.76508 -1.262312,-3.41188 -2.255625,-4.892484 L 41.25284,9.2075071 C 40.140075,7.8466524 38.870718,6.5895264 37.472284,5.5222596 l -5.178408,3.55817 C 30.805549,8.200202 29.203897,7.5248159 27.464931,7.1424978 L 26.51185,1.1063165 C 25.644369,1.0042729 24.769749,0.94746963 23.874992,0.94746963 c -0.241826,1e-8 -0.490706,-0.007609 -0.730696,0 -0.116995,0.003709 -0.232771,-0.006806 -0.349463,0 -0.0316,0.001843 -0.06376,-0.002158 -0.09531,0 z M 23.525529,16.387386 c 0.116063,-0.0059 0.231944,0 0.349463,0 3.760606,0 6.830416,3.06981 6.830416,6.830416 1e-6,3.760605 -3.069811,6.798646 -6.830416,6.798646 -3.760605,1e-6 -6.798646,-3.038041 -6.798646,-6.798646 10e-7,-3.643086 2.851212,-6.647839 6.449183,-6.830416 z"
       id="path3243" />
    <circle
       inkscape:r_cy="true"
       inkscape:r_cx="true"
       style="color:#000000;display:inline;overflow:visible;visibility:visible;opacity:0.647727;fill:none;fill-opacity:1;fill-rule:nonzero;stroke:#ffffff;stroke-width:1.6218;stroke-linecap:butt;stroke-linejoin:miter;stroke-miterlimit:4;stroke-dasharray:none;stroke-dashoffset:0pt;stroke-opacity:1;marker:none"
       id="path3283"
       transform="matrix(0.616598,0,0,0.616598,9.38202,8.53967)"
       cx="23.511301"
       cy="23.781593"
       r="12.727922" />
    <path
       inkscape:r_cy="true"
       inkscape:r_cx="true"
       id="path3285"
       d="m 21.995808,2.1484671 -0.892784,5.8750572 c -1.69877,0.3868703 -4.823582,1.5700792 -6.261367,2.4622467 L 10.091975,6.9406268 C 8.828145,7.9218257 8.741474,7.9883656 7.730867,9.2277688 l 3.434196,5.0932192 c -0.985526,1.506083 -2.169267,4.189994 -2.594285,6.107942 0,0 -6.01779,1.014425 -6.01779,1.014425 -0.103441,0.844879 -0.053728,2.653173 0.015892,3.348948 l 5.748217,1.035517 c 0.402393,1.96479 1.908227,5.127412 2.974807,6.747341 l -3.635002,4.802558 c 0.963699,1.196391 1.156572,1.30587 2.355908,2.266051 l 4.860631,-3.561037 c 1.66514,1.062221 4.970289,2.354376 6.98513,2.721127 l 0.797728,5.801092 c 0.63481,0.05778 2.38853,0.219875 3.274984,0.105749 l 0.892783,-6.03888 c 1.913018,-0.476072 5.218473,-1.832925 6.779125,-2.943023 l 4.855433,3.50816 c 1.189254,-1.011792 1.199909,-1.164249 2.139211,-2.41398 l -3.59802,-5.114311 c 0.903215,-1.5599 2.071087,-4.610599 2.388282,-6.45148 l 5.890949,-0.977443 c 0.04935,-0.58732 0.05176,-2.225166 -0.09506,-3.227305 L 39.182092,20.016922 C 38.73404,18.362463 37.196418,15.381153 36.265359,13.993342 L 40.080075,9.1907857 C 39.037052,7.915218 38.64924,7.7402002 37.338448,6.7398212 L 32.313994,10.337839 C 30.918941,9.5127782 28.137095,8.2550417 26.507114,7.8966842 L 25.619528,2.1484671 c -0.813114,-0.095648 -3.15904,-0.053175 -3.62372,0 z"
       style="color:#000000;display:inline;overflow:visible;visibility:visible;opacity:0.346591;fill:none;fill-opacity:1;fill-rule:nonzero;stroke:#ffffff;stroke-width:0.999999;stroke-linecap:butt;stroke-linejoin:miter;stroke-miterlimit:4;stroke-dasharray:none;stroke-dashoffset:0pt;stroke-opacity:1;marker:none"
       sodipodi:nodetypes="ccccccccccccccccccccccccccccccccc" />
  </g>
</svg>
